# xmcd
#
# Track frame offsets:
#	150
#	13860
#	27132
#	38304
#	52828
#	67477
#	79280
#	91916
#	104649
#	114751
#	128161
#	142933
#	158606
#	170109
#	183265
#	197563
#	211764
#	222434
#	235259
#	248831
#
# Disc length: 3532 seconds
#
# Revision: 2
# Processed by: cddbd v1.5.2PL0 Copyright (c) Steve Scherf et al.
# Submitted via: Antz-MP3Processor 1.0.0
#
DISCID=0c0dca14
DTITLE=Le Tableau D'honneur De La Chanson Française - 1934
DYEAR=1900
DGENRE=
TTITLE0=Tino Rossi-Ô Corse, Île D'amour
TTITLE1=Fernadel-J'ai Des Tous P'tits Besoins
TTITLE2=Pauline Carton-Sous Les Palétuviers
TTITLE3=Ouvrard-Je Ne Suis Pas Bien Portant
TTITLE4=Henry Garat-Amusez-Vous
TTITLE5=Alibert-À Toulon
TTITLE6=Charles Trénet, Johnny Hess-Sous Le Lit De Lily
TTITLE7=Reda Caire-Les Beaux Dimanches De Printemps
TTITLE8=Milton-La Trompette En Bois
TTITLE9=Jean Tranchant-Ici on Pêche
TTITLE10=Claude Pingault, Robert Burnier-Le Petit Train Départemental
TTITLE11=Fred Adison-Avec Les Pompiers
TTITLE12=Cora Madou-Sur Le Plancher Des Vaches
TTITLE13=Mistinguett-C'est Vrai
TTITLE14=Lys Gauty-Le Bistrot Du Port
TTITLE15=Berthe Sylva-Joujou De Noël
TTITLE16=Esther Lekain-Ah! Si Vous Voulez D'l'amour
TTITLE17=Fréhel-Dans Une Guingette
TTITLE18=Joséphine Baker-C'est Lui
TTITLE19=Yvette Guilbert-Madame Arthur
EXTD=
EXTT0=
EXTT1=
EXTT2=
EXTT3=
EXTT4=
EXTT5=
EXTT6=
EXTT7=
EXTT8=
EXTT9=
EXTT10=
EXTT11=
EXTT12=
EXTT13=
EXTT14=
EXTT15=
EXTT16=
EXTT17=
EXTT18=
EXTT19=
PLAYORDER=
